<svg xmlns="http://www.w3.org/2000/svg" viewBox="0 0 500 320">
  <g transform="translate(40,90) scale(0.55)">

    <g fill="#9B9B9B">
      <path d="M 60 65 C 60 38 78 18 105 18 C 124 18 138 26 146 38 L 132 50 C 126 41 117 36 105 36 C 88 36 80 48 80 65 C 80 82 88 94 105 94 C 117 94 126 89 132 80 L 146 92 C 138 104 124 112 105 112 C 78 112 60 92 60 65 Z"></path>
      <path fill-rule="evenodd" d="M 156 112 L 188 18 L 208 18 L 240 112 L 220 112 L 213 90 L 183 90 L 176 112 Z M 188 74 L 208 74 L 198 44 Z"></path>
      <path d="M 250 18 L 270 18 L 270 96 L 296 96 L 296 112 L 250 112 Z"></path>
      <path d="M 302 18 L 322 18 L 322 96 L 348 96 L 348 112 L 302 112 Z"></path>
      <path fill-rule="evenodd" d="M 358 18 L 410 18 L 410 34 L 378 34 L 378 58 L 402 58 L 402 73 L 378 73 L 378 96 L 412 96 L 412 112 L 358 112 Z"></path>
      <path d="M 446 18 L 466 18 L 466 86 C 466 102 456 112 440 112 C 428 112 419 107 412 99 L 423 87 C 427 92 432 95 438 95 C 443 95 446 92 446 86 Z"></path>
      <path d="M 590 18 L 610 18 L 638 78 L 638 18 L 656 18 L 656 112 L 636 112 L 608 52 L 608 112 L 590 112 Z"></path>
    </g>
    <path fill="#9B9B9B" fill-rule="evenodd" d="M 528 19 A 46 46 0 1 1 528 111 A 46 46 0 1 1 528 19 Z M 528 37 A 28 28 0 1 0 528 93 A 28 28 0 1 0 528 37 Z M 524 22 L 532 22 L 532 28 L 524 28 Z M 522 28 L 534 28 L 534 42 L 522 42 Z M 512 44 L 544 44 L 544 92 C 544 102 538 107 528 108 C 518 107 512 102 512 92 Z"></path>

    <text x="675" y="112" fill="#9B9B9B" font-size="36" font-family="Georgia, serif" font-style="italic">Bar</text>
  </g>
  <line x1="120" y1="200" x2="380" y2="200" stroke="#9B9B9B" stroke-width="1" opacity="0.3"></line>
  <text x="250" y="232" fill="#9B9B9B" font-size="18" text-anchor="middle" font-family="Arial, sans-serif" letter-spacing="8" opacity="0.5">PUNTO DE VENTA</text>
</svg>